<svg xmlns="http://www.w3.org/2000/svg" viewBox="0 0 1200 1200"><defs><style>.cls-1,.cls-5{fill:none;stroke-miterlimit:10;}.cls-1{stroke:#231f20;stroke-width:3px;}.cls-2{fill:#fff;}.cls-3{fill:#091a30;}.cls-4{fill:#555;}.cls-5{stroke:#555;stroke-width:4px;}</style></defs><g id="Layer_2" data-name="Layer 2"><line class="cls-1" x1="1152" y1="720" x2="1151.31" y2="720"/></g><g id="Layer_2_copy" data-name="Layer 2 copy"><rect class="cls-2" x="7.93" y="7.14" width="1184.14" height="1184.14"/><path class="cls-3" d="M308.4,602.27v5c0,13.87-10.09,25.15-22.49,25.15h-5.3c-12.2,11.74-24.54,21.69-35.9,29,1.11.09,2.23.14,3.36.14h50.08c22.38,0,40.58-17,40.58-37.79V559.58a352.22,352.22,0,0,1-28.23,40.13C309.81,600.57,309.1,601.42,308.4,602.27Z"/><path class="cls-4" d="M297.23,484.49H247.15c-22.37,0-40.57,17-40.57,37.79V622.44c0,18.61,14.51,34.11,33.54,37.22,11.35-7,23.81-16.78,36.21-28.52H259.39c-12.4,0-22.49-11.28-22.49-25.15V544.3c0-13.87,10.09-25.15,22.49-25.15H285c12.4,0,22.49,11.28,22.49,25.15v53.06l.29-.36a346.18,346.18,0,0,0,30-43.2V522.28C337.8,501.45,319.6,484.49,297.23,484.49Z"/><path class="cls-3" d="M523.39,528.65l-1.22,0V578h-.87v.87H487.79V578h-.87V528.67l-1.22,0c-16.84,0-30.54,12.76-30.54,28.44v75.38c0,15.69,13.7,28.45,30.54,28.45l1.22,0V603.16h.87v-.87H521.3v.87h.87v57.73l1.22,0c16.84,0,30.54-12.76,30.54-28.45V557.09C553.93,541.41,540.23,528.65,523.39,528.65Z"/><path class="cls-3" d="M557.71,557.84v75.39c0,15.68,13.7,28.44,30.54,28.44h68.23V633.23a26.07,26.07,0,0,0-.21-3.32h-66.8V607.23H641V583.84H589.47V561.16h67V529.4H588.25C571.41,529.4,557.71,542.16,557.71,557.84Z"/><path class="cls-3" d="M419.28,529.23h-37.7c-16.83,0-30.53,12.76-30.53,28.45v75.38c0,15.68,13.7,28.44,30.53,28.44l100.17-.64c16.84,0-14.66-11.61-14.66-27.29,0-1.12-6.9-1.33-7-2.42l-76.38-1.41v-.87h-.87v-67h.87V561H449.6a25.8,25.8,0,0,0,.21-3.31C449.81,542,436.11,529.23,419.28,529.23Z"/><ellipse class="cls-5" cx="272.19" cy="550.76" rx="123.43" ry="40.2" transform="translate(-258.98 242.07) rotate(-33.54)"/><circle class="cls-4" cx="374.81" cy="482.74" r="9.85"/><path class="cls-4" d="M661.22,529.4H675.6L711.24,646,746.88,529.4H760.6L719.27,661.54h-17.4Z"/><path class="cls-4" d="M750.6,628.46v-1C750.6,607.74,762,594,778.29,594c13.67,0,26.55,9.11,26.55,32.45v3.37H760.32c.45,14.86,6.89,23.1,19,23.1,9.16,0,14.47-3.75,15.71-11.36h9.38c-2,13.1-11.87,20-25.2,20C762.46,661.54,750.6,648.56,750.6,628.46Zm44.64-7c-.91-13.48-7.24-18.85-17-18.85s-16,7.24-17.63,18.85Z"/><path class="cls-4" d="M819.2,595.13h9.38v11.74c3.72-7.37,8.81-12.49,19.43-12.86v9.74c-11.86.62-19.43,4.74-19.43,20.84v35.83H819.2Z"/><path class="cls-4" d="M856.26,640.32h9.16c.68,7.74,4.4,12.61,13.9,12.61,8.93,0,12.88-3.37,12.88-10.36s-4.63-9.12-13.79-11c-15.37-3.12-20.56-7.86-20.56-19.22,0-12.11,10.73-18.35,20-18.35,10.62,0,19.77,4.74,21.36,18.85h-9c-1.36-7.12-5-10.24-12.43-10.24-6.79,0-11.19,3.75-11.19,9.36,0,5.87,2.94,8.24,13.78,10.36,12.21,2.5,20.8,5.5,20.8,19.35,0,11.86-7.35,19.85-21.7,19.85C865.3,661.54,856.83,653.68,856.26,640.32Z"/><path class="cls-4" d="M911,628.46v-1c0-19.72,11.41-33.45,27.69-33.45,13.67,0,26.55,9.11,26.55,32.45v3.37H920.68c.45,14.86,6.89,23.1,19,23.1,9.16,0,14.47-3.75,15.71-11.36h9.38c-2,13.1-11.86,20-25.2,20C922.83,661.54,911,648.56,911,628.46Zm44.64-7c-.91-13.48-7.23-18.85-17-18.85s-16,7.24-17.63,18.85Z"/><circle class="cls-4" cx="981.69" cy="648.43" r="9.32"/></g></svg>