<svg xmlns="http://www.w3.org/2000/svg" viewBox="0 0 1200 1200"><defs><style>.cls-1{fill:#091a2f;}.cls-2{fill:#fff;}.cls-3{fill:#555;}.cls-4{fill:none;stroke:#555;stroke-miterlimit:10;stroke-width:4px;}</style></defs><g id="Layer_2" data-name="Layer 2"><rect class="cls-1" x="-1" y="7.14" width="1200" height="1200"/></g><g id="Layer_2_copy" data-name="Layer 2 copy"><path class="cls-2" d="M350.79,592.5v5c0,13.87-10.09,25.15-22.49,25.15H323c-12.21,11.74-24.54,21.69-35.9,29,1.11.09,2.23.14,3.36.14h50.08c22.37,0,40.57-17,40.57-37.79V549.82A355.16,355.16,0,0,1,352.89,590Z"/><path class="cls-3" d="M339.62,474.72H289.54c-22.38,0-40.58,17-40.58,37.8V612.68c0,18.6,14.52,34.1,33.55,37.21,11.35-7,23.81-16.77,36.21-28.52H301.78c-12.4,0-22.49-11.28-22.49-25.15V534.53c0-13.86,10.09-25.15,22.49-25.15h25.6c12.4,0,22.49,11.29,22.49,25.15v53.06l.29-.36a346.18,346.18,0,0,0,30-43.2V512.52C380.19,491.68,362,474.72,339.62,474.72Z"/><path class="cls-2" d="M565.78,518.88l-1.22,0v49.35h-.88v.88h-33.5v-.88h-.87V518.91l-1.22,0c-16.84,0-30.54,12.76-30.54,28.44v75.39c0,15.68,13.7,28.44,30.54,28.44l1.22,0V593.39h.87v-.87h33.5v.87h.88v57.73l1.22,0c16.84,0,30.54-12.76,30.54-28.44V547.32C596.32,531.64,582.62,518.88,565.78,518.88Z"/><path class="cls-2" d="M600.1,548.08v75.38c0,15.68,13.7,28.44,30.54,28.44h68.22V623.46a28.05,28.05,0,0,0-.2-3.32h-66.8V597.46h51.53V574.08H631.86V551.39h67V519.63H630.64C613.8,519.63,600.1,532.39,600.1,548.08Z"/><path class="cls-2" d="M461.66,519.47H424c-16.84,0-30.54,12.76-30.54,28.44v75.38c0,15.69,13.7,28.44,30.54,28.44l100.17-.64c16.84,0-14.66-11.61-14.66-27.29,0-1.12-6.9-1.33-7-2.42L426.07,620v-.88h-.88v-67h.88v-.87H492a26.07,26.07,0,0,0,.21-3.32C492.2,532.23,478.5,519.47,461.66,519.47Z"/><ellipse class="cls-4" cx="314.58" cy="540.99" rx="123.43" ry="40.2" transform="translate(-246.52 263.87) rotate(-33.54)"/><circle class="cls-3" cx="417.2" cy="472.97" r="9.85"/><path class="cls-3" d="M703.6,519.63H718l35.64,116.62,35.64-116.62H803L761.66,651.77h-17.4Z"/><path class="cls-3" d="M793,618.69v-1c0-19.72,11.41-33.45,27.68-33.45,13.68,0,26.56,9.11,26.56,32.46v3.37H802.71c.45,14.85,6.89,23.09,19,23.09,9.15,0,14.46-3.75,15.71-11.36h9.38c-2,13.11-11.87,20-25.2,20C804.85,651.77,793,638.79,793,618.69Zm44.63-7c-.9-13.48-7.23-18.85-17-18.85s-16,7.24-17.63,18.85Z"/><path class="cls-3" d="M861.58,585.37H871V597.1c3.73-7.37,8.82-12.48,19.44-12.86V594c-11.87.62-19.44,4.74-19.44,20.84v35.83h-9.38Z"/><path class="cls-3" d="M898.65,630.55h9.15c.68,7.74,4.41,12.61,13.9,12.61,8.93,0,12.89-3.37,12.89-10.36s-4.64-9.11-13.79-11c-15.37-3.12-20.57-7.86-20.57-19.22,0-12.11,10.74-18.35,20-18.35,10.62,0,19.77,4.75,21.35,18.85h-9c-1.35-7.11-5-10.24-12.43-10.24-6.78,0-11.19,3.75-11.19,9.37,0,5.86,2.94,8.24,13.79,10.36,12.21,2.49,20.79,5.49,20.79,19.34,0,11.86-7.34,19.85-21.69,19.85C907.69,651.77,899.22,643.91,898.65,630.55Z"/><path class="cls-3" d="M953.35,618.69v-1c0-19.72,11.41-33.45,27.68-33.45,13.68,0,26.56,9.11,26.56,32.46v3.37H963.07c.45,14.85,6.89,23.09,19,23.09,9.16,0,14.47-3.75,15.71-11.36h9.38c-2,13.11-11.87,20-25.2,20C965.21,651.77,953.35,638.79,953.35,618.69Zm44.64-7c-.91-13.48-7.24-18.85-17-18.85s-16,7.24-17.62,18.85Z"/><circle class="cls-3" cx="1024.07" cy="638.66" r="9.32"/></g></svg>