<svg xmlns="http://www.w3.org/2000/svg" viewBox="0 0 1200 1200"><defs><style>.cls-1{fill:#555;}.cls-2{fill:#091a30;}.cls-3{fill:#fff;}.cls-4{fill:none;stroke:#fff;stroke-miterlimit:10;stroke-width:4px;}</style></defs><g id="Layer_2_copy" data-name="Layer 2 copy"><rect class="cls-1" x="7.93" y="7.93" width="1184.14" height="1184.14"/><path class="cls-2" d="M324.74,628.43v5c0,13.87-10.09,25.15-22.49,25.15H297a239.42,239.42,0,0,1-35.9,29c1.11.08,2.23.14,3.36.14h50.08c22.38,0,40.58-17,40.58-37.79V585.74a352.22,352.22,0,0,1-28.23,40.13C326.15,626.73,325.44,627.58,324.74,628.43Z"/><path class="cls-3" d="M313.57,510.65H263.49c-22.37,0-40.57,17-40.57,37.79V648.6c0,18.61,14.51,34.1,33.54,37.21,11.35-6.95,23.81-16.77,36.21-28.51H275.73c-12.4,0-22.49-11.29-22.49-25.15V570.46c0-13.87,10.09-25.15,22.49-25.15h25.6c12.4,0,22.49,11.28,22.49,25.15v53c.1-.12.2-.23.29-.35a346.26,346.26,0,0,0,30-43.21V548.44C354.14,527.6,335.94,510.65,313.57,510.65Z"/><path class="cls-2" d="M539.73,554.8l-1.22,0v49.36h-.87v.87H504.13v-.87h-.87V554.83l-1.22,0c-16.84,0-30.54,12.76-30.54,28.45v75.38c0,15.68,13.7,28.44,30.54,28.44l1.22,0V629.31h.87v-.87h33.51v.87h.87v57.74l1.22,0c16.84,0,30.54-12.76,30.54-28.44V583.25C570.27,567.56,556.57,554.8,539.73,554.8Z"/><path class="cls-2" d="M574.05,584v75.38c0,15.68,13.7,28.44,30.54,28.44h68.23V659.38a25.8,25.8,0,0,0-.21-3.31h-66.8V633.38h51.53V610H605.81V587.31h67V555.56H604.59C587.75,555.56,574.05,568.32,574.05,584Z"/><path class="cls-2" d="M435.62,555.39h-37.7c-16.83,0-30.53,12.76-30.53,28.44v75.38c0,15.69,13.7,28.45,30.53,28.45L498.09,687c16.84,0-14.66-11.6-14.66-27.29,0-1.12-6.9-1.33-7-2.41L400,655.9V655h-.87V588H400v-.87h65.92a26.07,26.07,0,0,0,.21-3.32C466.15,568.15,452.45,555.39,435.62,555.39Z"/><ellipse class="cls-4" cx="288.53" cy="576.92" rx="123.43" ry="40.2" transform="translate(-270.71 255.46) rotate(-33.54)"/><circle class="cls-3" cx="391.15" cy="508.89" r="9.85"/><path class="cls-3" d="M677.56,555.56h14.38l35.64,116.61,35.64-116.61h13.72L735.61,687.69h-17.4Z"/><path class="cls-3" d="M766.94,654.62v-1c0-19.72,11.41-33.46,27.69-33.46,13.67,0,26.55,9.12,26.55,32.46V656H776.66c.45,14.85,6.89,23.09,19,23.09,9.16,0,14.47-3.74,15.71-11.36h9.38c-2,13.11-11.87,20-25.2,20C778.8,687.69,766.94,674.71,766.94,654.62Zm44.64-7c-.91-13.49-7.24-18.85-17-18.85s-16,7.24-17.63,18.85Z"/><path class="cls-3" d="M835.54,621.29h9.38V633c3.72-7.36,8.81-12.48,19.43-12.86v9.74c-11.86.62-19.43,4.74-19.43,20.85v35.82h-9.38Z"/><path class="cls-3" d="M872.6,666.47h9.16c.68,7.74,4.4,12.61,13.9,12.61,8.92,0,12.88-3.37,12.88-10.36s-4.63-9.11-13.79-11c-15.37-3.12-20.56-7.87-20.56-19.23,0-12.1,10.73-18.35,20-18.35,10.62,0,19.77,4.75,21.36,18.85h-9c-1.36-7.11-5-10.23-12.43-10.23-6.79,0-11.19,3.74-11.19,9.36,0,5.87,2.94,8.24,13.78,10.36,12.21,2.5,20.8,5.49,20.8,19.35,0,11.86-7.35,19.84-21.7,19.84C881.64,687.69,873.17,679.83,872.6,666.47Z"/><path class="cls-3" d="M927.3,654.62v-1c0-19.72,11.41-33.46,27.69-33.46,13.67,0,26.55,9.12,26.55,32.46V656H937c.45,14.85,6.89,23.09,19,23.09,9.16,0,14.47-3.74,15.71-11.36h9.38c-2,13.11-11.86,20-25.2,20C939.17,687.69,927.3,674.71,927.3,654.62Zm44.64-7c-.91-13.49-7.23-18.85-17-18.85s-16,7.24-17.63,18.85Z"/></g></svg>